<?xml version="1.0" encoding="utf-8" standalone="yes"?>
<!-- Generator: Adobe Illustrator 19.2.0, SVG Export Plug-In . SVG Version: 6.00 Build 0)  -->
<svg xmlns="http://www.w3.org/2000/svg" xmlns:xlink="http://www.w3.org/1999/xlink" version="1.1" x="0px" y="0px" width="24px" height="24px" viewBox="0 0 24 24" enable-background="new 0 0 24 24" xml:space="preserve">
    <g id="Filled_Icons">
        <g>
            <path fill="#D5DEE9" d="M23.5,17h-23C0.224,16.994,0,17.219,0,17.494c0,0.277,0.224,0.5,0.5,0.5h0.793l1.854,1.854    c0.094,0.096,0.221,0.146,0.353,0.146h17c0.133,0,0.26-0.051,0.354-0.146l1.854-1.854H23.5c0.276,0,0.5-0.223,0.5-0.5    C24,17.219,23.776,16.994,23.5,17z"></path>
            <path fill="#D5DEE9" d="M3,16h18c0.004,0,0.007,0,0.01,0c0.276,0,0.5-0.223,0.5-0.5c0-4.584-3.34-8.559-7.879-9.35C13.861,5.824,14,5.429,14,5    c0-1.102-0.898-2-2-2c-1.104,0-2,0.898-2,2c0,0.43,0.138,0.825,0.369,1.15C5.906,6.928,2.5,10.819,2.5,15.5    C2.5,15.777,2.724,16,3,16z M12,4c0.551,0,1,0.449,1,1c0,0.553-0.449,1-1,1c-0.552,0-1-0.447-1-1C11,4.449,11.448,4,12,4z     M6.101,11.732C7.394,9.708,9.6,8.5,12,8.5c0.276,0,0.5,0.225,0.5,0.5c0,0.277-0.224,0.5-0.5,0.5    c-2.058,0-3.947,1.036-5.057,2.771C6.848,12.419,6.687,12.5,6.522,12.5c-0.092,0-0.186-0.025-0.269-0.078    C6.021,12.273,5.952,11.964,6.101,11.732z"></path>
        </g>
    </g>
    <g id="invisible_shape">
        <rect fill="none" width="24" height="24"></rect>
    </g>
</svg>
