<?xml version="1.0"?>
<svg xmlns="http://www.w3.org/2000/svg" viewBox="0 0 24 24">
    <path fill="#D5DEE9" d="M22,3.775a1.537,1.537,0,0,0-.89-1.406A22.143,22.143,0,0,0,12,.5,22.143,22.143,0,0,0,2.89,2.369,1.537,1.537,0,0,0,2,3.775v7.637A12.285,12.285,0,0,0,9.828,22.88l1.067.414a3.063,3.063,0,0,0,2.21,0l1.067-.414A12.285,12.285,0,0,0,22,11.412ZM18.508,8.239l-6.035,8.232a1.251,1.251,0,0,1-.912.507c-.033,0-.065,0-.1,0a1.248,1.248,0,0,1-.884-.367L6,12.036a1.25,1.25,0,0,1,1.768-1.767l3.341,3.342a.25.25,0,0,0,.379-.029l5-6.821a1.25,1.25,0,1,1,2.016,1.478Z"></path>
</svg>
