<?xml version="1.0" encoding="utf-8" standalone="yes"?>
<!-- Generator: Adobe Illustrator 19.2.1, SVG Export Plug-In . SVG Version: 6.00 Build 0)  -->
<svg xmlns="http://www.w3.org/2000/svg" xmlns:xlink="http://www.w3.org/1999/xlink" version="1.1" x="0px" y="0px" width="24px" height="24px" viewBox="0 0 24 24" enable-background="new 0 0 24 24" xml:space="preserve">
    <g id="Filled_Icon">
        <path fill="#D5DEE9" d="M21.5,16h-4.846C11.993,12.756,17,7.383,17,5c0-3.261-2.516-4.966-5.002-4.966C9.514,0.034,7,1.739,7,5   c0,2.394,5.019,7.748,0.346,11H2.5C1.122,16,0,17.121,0,18.5v3C0,21.777,0.224,22,0.5,22H1v1.5C1,23.777,1.224,24,1.5,24h21   c0.276,0,0.5-0.223,0.5-0.5V22h0.5c0.276,0,0.5-0.223,0.5-0.5v-3C24,17.121,22.878,16,21.5,16z M22,23H2v-1h20V23z"></path>
    </g>
    <g id="Invisible_Shape">
        <rect x="0.001" fill="none" width="24" height="24"></rect>
    </g>
</svg>
