<?xml version="1.0"?>
<svg xmlns="http://www.w3.org/2000/svg" viewBox="0 0 24 24">
    <path fill="#D5DEE9" d="M0,20.5a2.006,2.006,0,0,0,2,2H22a2.006,2.006,0,0,0,2-2V3.5a2.006,2.006,0,0,0-2-2H2a2,2,0,0,0-2,2ZM2.25,5A1.252,1.252,0,0,1,3.5,3.75H21A1.252,1.252,0,0,1,22.25,5V19.5A1.251,1.251,0,0,1,21,20.75H3.5A1.251,1.251,0,0,1,2.25,19.5Z"></path>
    <path fill="#D5DEE9" d="M20.75,5.75a.5.5,0,0,0-.5-.5h-16a.5.5,0,0,0-.5.5v13a.5.5,0,0,0,.5.5h16a.5.5,0,0,0,.5-.5ZM10.707,10.793a1,1,0,0,1,0,1.414l-2.5,2.5a1,1,0,1,1-1.414-1.414l1.616-1.616a.25.25,0,0,0,0-.354L6.793,9.707A1,1,0,1,1,8.207,8.293ZM17.5,13.5a1,1,0,0,1-1,1h-4a1,1,0,0,1,0-2h4A1,1,0,0,1,17.5,13.5Z"></path>
</svg>
