<svg xmlns="http://www.w3.org/2000/svg" viewBox="0 0 143.5 42.09"><defs><style>.cls-1{fill:none;}.cls-2{fill:#d71526;}</style></defs><title>アセット 15</title><g id="レイヤー_2" data-name="レイヤー 2"><g id="レイヤー_1-2" data-name="レイヤー 1"><path d="M21.87,20A13.2,13.2,0,0,1,34.92,6.83c6.44,0,10.88,4.74,10.88,11a13.21,13.21,0,0,1-13,13.21C26.31,31.05,21.87,26.32,21.87,20Zm20.22-2.1c0-4.34-2.9-7.71-7.27-7.71-5.17,0-9.25,4.51-9.25,9.71,0,4.34,2.91,7.71,7.28,7.71A9.52,9.52,0,0,0,42.09,17.94Z"/><path d="M47.67,20a13.2,13.2,0,0,1,13-13.21c6.44,0,10.88,4.74,10.88,11a13.21,13.21,0,0,1-13,13.21C52.11,31.05,47.67,26.32,47.67,20Zm20.22-2.1c0-4.34-2.9-7.71-7.27-7.71-5.17,0-9.25,4.51-9.25,9.71,0,4.34,2.91,7.71,7.28,7.71C63.85,27.65,67.89,23.14,67.89,17.94Z"/><path d="M72.84,24.81a9.7,9.7,0,0,0,6.41,3c2.4,0,4.07-1.4,4.07-3.57,0-1.57-.94-2.64-3.3-3.87l-1.37-.71a6.56,6.56,0,0,1-4.07-6.14c0-3.9,3.2-6.7,7.47-6.7A12.23,12.23,0,0,1,88.57,8.9l-.68,3.51-.23-.18A10.16,10.16,0,0,0,82,10c-2.2,0-3.84,1.4-3.84,3.3,0,1.17.57,2.37,2.51,3.34l1.33.67C85.46,19.07,87,21,87,24c0,4.3-3.11,7.1-7.61,7.1a11.56,11.56,0,0,1-7.45-2.8l.71-3.65Z"/><path d="M106.27,10.63h-5.85l-3.91,20H92.94l3.91-20H91l.66-3.37h15.32Z"/><path d="M115,21.54l5.27,9.08h-4.14l-5.3-9.74-1.91,9.74h-3.57L109.9,7.26h4.77c4.67,0,7.68,2.54,7.68,6.47S119.44,20.74,115,21.54Zm-3.84-2.37h1.33c3.51,0,6.18-2.17,6.18-5.07,0-2.3-1.7-3.7-4.44-3.7h-1.37Z"/><line class="cls-1" x1="72.32" y1="24.47" x2="72.69" y2="24.81"/><path d="M15.4,16.76l-.76-.31.78-.27C19,15,21.06,12.35,21.06,9.23c0-3.92-3.19-6.65-7.75-6.65H6L.5,30.62H9c5.94,0,10.42-3.48,10.42-8.08A6,6,0,0,0,15.4,16.76ZM8.93,5.68H12.3c2.94,0,4.77,1.55,4.77,4,0,3-2.58,5.18-6,5.18H7.13ZM9.1,27.52H4.75L6.59,18h3.82c3.05,0,5,1.7,5,4.32C15.43,25.34,12.76,27.52,9.1,27.52Z"/><polygon class="cls-2" points="134.09 25.12 132.58 21.09 132.54 20.97 132.49 20.86 127.39 7.26 123.39 7.26 130.13 25.3 121.55 42.09 125.56 42.09 131.87 29.85 131.93 29.73 131.98 29.61 134.06 25.58 134.12 25.47 134.18 25.35 134.14 25.24 134.09 25.12"/><polygon points="139.5 7.26 132.65 20.76 132.65 20.76 132.54 20.98 132.58 21.09 134.09 25.12 134.14 25.24 134.18 25.35 143.5 7.26 139.5 7.26"/><rect class="cls-1" width="143" height="42"/></g></g></svg>