<svg xmlns="http://www.w3.org/2000/svg" viewBox="0 0 24 24"><path stroke="none" d="M14.9031 0.366697C13.1778 -0.153606 10.3652 -0.115765 8.65406 0.451837L3.48985 2.15938C1.77869 2.72461 1.75978 3.70846 3.44731 4.34228L9.37019 6.56776C11.0577 7.20158 13.8041 7.16137 15.4703 6.47789L20.7905 4.29735C22.4592 3.61386 22.4119 2.63001 20.6842 2.10971L14.9031 0.366697Z"></path><path stroke="none" d="M15.7941 7.23937C14.1254 7.92285 12.7617 9.95676 12.7617 11.7613V21.3065C12.7617 23.111 14.0451 23.8583 15.6121 22.9667L20.4903 20.1949C22.0573 19.3033 23.421 17.1015 23.5203 15.3017L23.9694 7.09273C24.0686 5.29059 22.7829 4.3777 21.1143 5.06119L15.7941 7.23937Z"></path><path stroke="none" d="M0.00133772 7.09518C-0.0482954 5.29304 1.28944 4.33521 2.97696 4.96903L8.89985 7.19451C10.5874 7.82833 11.9676 9.82204 11.9676 11.6265V21.1717C11.9676 22.9762 10.6654 23.7591 9.07238 22.9147L3.20622 19.8C1.61323 18.9534 0.270778 16.787 0.218781 14.9849L0.00133772 7.09518Z"></path></svg>
