<svg xmlns="http://www.w3.org/2000/svg" viewBox="0 0 980 979.97"><path d="M139.38,0c-185.82-3.54-185.82,277,0,273.46H251.44C437.25,277,437.25-3.5,251.44,0ZM729.25,353.24c-184.92-2.62-184.92,276.1,0,273.48H841.31c184.92,2.62,184.92-276.1,0-273.48ZM138.69,706.46c-184.92-2.61-184.92,276.1,0,273.49H250.75c184.91,2.61,184.91-276.1,0-273.49Z" fill="#b43278"/><path d="M583.47,0c-185.82-3.54-185.82,277,0,273.46H840.61c185.81,3.54,185.81-277,0-273.46ZM138.7,353.24c-184.92-2.62-184.92,276.1,0,273.48H395.85c184.92,2.62,184.92-276.1,0-273.48ZM584.13,706.46c-184.91-2.61-184.91,276.1,0,273.49H841.3c184.92,2.61,184.92-276.1,0-273.49Z" fill="#f65a8e"/></svg>