<?xml version="1.0" standalone="no"?>
<!DOCTYPE svg PUBLIC "-//W3C//DTD SVG 20010904//EN"
 "http://www.w3.org/TR/2001/REC-SVG-20010904/DTD/svg10.dtd">
<svg version="1.0" xmlns="http://www.w3.org/2000/svg"
 width="1200.000000pt" height="1200.000000pt" viewBox="0 0 1200.000000 1200.000000"
 preserveAspectRatio="xMidYMid meet">
<metadata>
Created by potrace 1.11, written by Peter Selinger 2001-2013
</metadata>
<g transform="translate(0.000000,1200.000000) scale(0.100000,-0.100000)"
fill="#000000" stroke="none">
<path d="M0 6000 l0 -6000 6000 0 6000 0 0 6000 0 6000 -6000 0 -6000 0 0
-6000z m5509 4678 c26 -19 3531 -4656 3531 -4672 0 -10 -1532 -6 -1668 4 -230
18 -409 61 -610 147 -230 98 -411 221 -593 402 -101 101 -210 243 -874 1126
-417 556 -781 1038 -807 1073 -38 51 -48 71 -48 102 0 33 81 197 450 912 301
584 460 882 480 901 39 35 94 37 139 5z m-2269 -5058 c0 -5 -2 -10 -4 -10 -3
0 -8 5 -11 10 -3 6 -1 10 4 10 6 0 11 -4 11 -10z m35 -33 c0 -6 10 -14 23 -17
13 -3 23 -8 23 -12 -2 -24 1 -28 18 -28 12 0 21 -10 26 -27 5 -21 8 -24 15
-12 6 8 6 15 0 17 -6 2 -10 8 -10 13 0 4 7 6 16 2 8 -3 13 -12 10 -19 -3 -7
-1 -16 4 -19 6 -4 10 3 10 14 0 12 5 21 11 21 5 0 7 -4 4 -10 -3 -5 -1 -10 5
-10 6 0 15 10 20 23 5 12 9 16 9 9 1 -7 6 -10 13 -6 7 5 8 3 3 -6 -6 -10 -4
-12 9 -7 9 4 14 3 11 -2 -3 -5 -1 -12 5 -16 9 -6 14 8 11 28 -1 5 3 6 9 2 6
-3 7 -11 4 -17 -4 -7 -2 -8 4 -4 7 4 12 13 12 21 0 7 7 15 15 19 12 4 13 2 2
-16 -9 -16 -9 -22 0 -25 7 -2 9 -12 6 -21 -6 -14 -5 -15 9 -2 9 8 14 23 12 33
-1 10 1 15 7 12 5 -4 7 -10 4 -15 -6 -10 7 -20 35 -25 11 -2 18 0 15 5 -3 5
-1 11 5 15 6 4 8 11 5 16 -4 5 -1 9 4 9 6 0 11 -6 11 -14 0 -22 13 -26 30 -8
13 14 12 15 -5 9 -19 -7 -19 -6 -2 7 11 9 14 16 7 19 -6 3 -5 4 2 3 7 -2 14
-8 14 -14 1 -7 3 -15 4 -19 1 -5 2 -12 0 -18 -1 -5 7 -2 17 8 16 13 22 14 33
4 12 -10 12 -9 0 6 -7 10 -19 16 -27 13 -8 -4 -11 -1 -8 5 4 6 13 8 21 5 17
-7 18 6 2 23 -11 11 -10 12 0 6 7 -4 17 -18 22 -31 5 -13 18 -24 28 -24 27 0
34 11 20 29 -9 12 -7 11 8 -2 12 -10 28 -15 38 -11 9 3 16 1 16 -5 0 -6 -7
-11 -15 -11 -8 0 -15 -5 -15 -10 0 -7 6 -7 19 0 11 5 21 7 24 2 2 -4 2 -1 1 6
-2 6 1 12 6 12 6 0 10 -7 10 -16 0 -8 4 -13 9 -10 5 3 7 16 4 29 -4 21 -4 21
8 2 15 -24 40 -44 54 -45 6 0 3 5 -5 10 -12 8 -12 10 5 10 16 0 17 2 5 10 -9
6 -17 5 -22 -3 -4 -7 -8 -7 -8 -2 0 6 5 17 10 25 7 11 12 12 21 3 6 -6 19 -9
28 -5 13 5 14 3 4 -9 -9 -12 -5 -14 30 -14 32 0 45 5 53 20 7 14 7 22 0 28 -7
6 -5 7 5 4 9 -3 23 0 30 6 7 7 6 3 -2 -8 -22 -28 -30 -53 -19 -60 6 -4 10 1
10 10 0 9 5 13 11 9 6 -3 15 0 20 7 8 12 11 12 18 -1 7 -10 6 -17 -2 -22 -8
-5 -9 -8 -1 -8 6 0 17 7 24 15 7 8 20 15 28 15 13 0 13 -2 -2 -13 -16 -12 -16
-13 6 -13 18 0 23 6 25 25 0 14 -3 35 -8 46 -10 20 -10 20 5 1 9 -11 16 -25
16 -32 0 -7 8 -10 20 -7 11 3 20 10 20 15 0 5 11 -4 25 -19 l26 -28 -16 40
c-13 36 -13 38 0 20 9 -11 19 -19 23 -17 4 1 7 -2 7 -8 0 -5 5 -10 10 -10 6 0
10 4 10 9 0 5 4 13 9 18 5 5 6 3 2 -4 -4 -8 -1 -13 9 -13 9 0 14 -4 11 -9 -3
-4 6 -6 19 -3 14 2 22 8 19 13 -3 5 0 9 5 9 6 0 11 -4 11 -10 0 -5 5 -10 11
-10 6 0 9 7 5 15 -8 22 11 18 27 -6 11 -15 16 -17 20 -7 3 7 6 3 6 -9 1 -12 6
-25 13 -29 7 -5 9 -2 5 9 -5 13 0 15 24 12 18 -2 27 0 23 6 -3 6 -12 8 -18 6
-7 -3 -19 -1 -27 4 -10 6 -2 9 24 9 23 0 37 -5 37 -12 0 -9 3 -9 9 1 11 17 61
22 61 6 0 -5 5 -3 10 5 9 13 13 12 30 -9 11 -13 20 -18 20 -12 0 7 5 9 11 5 7
-4 10 -1 7 7 -3 8 -13 13 -22 13 -9 -1 -16 5 -16 14 0 8 3 12 6 9 4 -3 16 -1
28 5 19 10 20 10 7 -5 -12 -15 -10 -18 19 -28 20 -7 28 -14 20 -19 -8 -5 -7
-9 5 -14 20 -7 35 0 35 17 0 7 -4 6 -10 -3 -5 -8 -10 -10 -10 -4 0 12 29 41
31 30 1 -3 2 -10 3 -15 2 -17 14 -22 22 -10 5 8 3 10 -6 4 -8 -5 -11 -4 -6 3
4 6 13 9 21 5 8 -3 15 -1 15 4 0 5 7 10 15 10 8 0 12 -4 9 -9 -3 -4 2 -8 10
-8 8 0 18 5 21 10 5 8 12 7 23 -2 13 -11 14 -11 7 1 -6 11 -4 13 8 8 19 -7 22
4 7 19 -7 7 -6 11 4 11 8 0 13 -4 10 -8 -2 -4 5 -14 17 -23 13 -9 18 -19 14
-27 -5 -8 -4 -10 3 -5 15 9 16 36 2 36 -5 0 -9 10 -9 23 1 16 2 18 6 5 2 -10
11 -18 20 -18 8 0 13 -6 11 -12 -3 -7 3 -22 13 -32 11 -11 19 -15 19 -10 0 6
16 9 35 8 19 -2 35 1 35 7 0 6 4 8 9 5 5 -3 14 0 20 8 7 8 25 12 46 9 20 -2
35 1 35 7 0 5 5 10 11 10 5 0 8 -4 5 -8 -2 -4 -1 -14 3 -21 6 -8 10 -3 14 18
4 17 11 31 17 31 6 0 6 -9 0 -26 -8 -21 -8 -25 4 -21 7 3 18 1 24 -5 8 -8 13
-7 18 5 7 20 29 22 40 5 4 -6 3 -8 -4 -4 -6 3 -14 1 -18 -5 -4 -8 -3 -9 4 -5
7 4 12 2 12 -5 0 -8 4 -8 15 1 8 7 13 16 10 20 -3 5 -1 12 5 15 6 4 9 1 8 -6
-2 -6 3 -14 10 -16 8 -3 12 1 10 10 -2 9 0 16 5 16 22 2 28 0 22 -9 -3 -5 -1
-18 5 -27 10 -17 10 -16 8 2 -2 14 2 20 15 19 13 -1 16 3 12 16 -5 14 0 18 20
16 24 -1 42 -23 29 -35 -4 -3 -9 0 -11 7 -6 16 -20 16 -20 -1 0 -7 13 -14 30
-15 24 -2 28 0 23 15 -5 14 -4 15 4 7 15 -15 52 -6 43 10 -4 6 1 5 11 -3 10
-8 15 -23 13 -33 -6 -20 9 -25 16 -5 3 7 44 -28 98 -83 68 -69 239 -288 610
-780 283 -377 648 -860 810 -1075 286 -379 294 -391 294 -435 -1 -39 -58 -155
-453 -920 -249 -481 -463 -883 -475 -892 -33 -26 -79 -32 -118 -15 -29 12
-225 266 -1142 1483 -1972 2616 -2107 2796 -2107 2812 0 13 3 14 13 4 6 -7 12
-18 12 -25z m1458 -11 c4 -10 1 -13 -8 -9 -8 3 -12 9 -9 14 7 12 11 11 17 -5z
m555 -6 c15 0 15 -2 2 -10 -15 -9 -30 4 -29 25 0 6 3 4 6 -2 2 -7 12 -13 21
-13z m-408 -4 c0 -2 -8 -10 -17 -17 -16 -13 -17 -12 -4 4 13 16 21 21 21 13z
m90 -2 c0 -8 -19 -13 -24 -6 -3 5 1 9 9 9 8 0 15 -2 15 -3z m700 -4 c0 -5 -2
-10 -4 -10 -3 0 -8 5 -11 10 -3 6 -1 10 4 10 6 0 11 -4 11 -10z m-2255 -19
c-3 -6 -11 -11 -16 -11 -5 0 -4 6 3 14 14 16 24 13 13 -3z m460 9 c-3 -5 -12
-10 -18 -10 -7 0 -6 4 3 10 19 12 23 12 15 0z m205 -10 c3 -2 8 -2 13 -1 4 0
7 -3 7 -9 0 -13 -17 -13 -26 1 -4 7 -9 8 -13 1 -4 -6 -11 -4 -19 4 -11 12 -9
13 10 10 13 -3 25 -5 28 -6z m130 -12 c0 -18 -2 -20 -9 -8 -6 8 -7 18 -5 22 9
14 14 9 14 -14z m245 12 c3 -6 -1 -7 -9 -4 -18 7 -21 14 -7 14 6 0 13 -4 16
-10z m682 -22 c-3 -8 -6 -5 -6 6 -1 11 2 17 5 13 3 -3 4 -12 1 -19z m103 18
c0 -11 -19 -15 -25 -6 -3 5 1 10 9 10 9 0 16 -2 16 -4z m-60 -10 c0 -2 -7 -6
-15 -10 -8 -3 -15 -1 -15 4 0 6 7 10 15 10 8 0 15 -2 15 -4z m-1547 -23 c-3
-7 -9 -10 -14 -7 -14 8 -11 21 5 21 8 0 12 -6 9 -14z"/>
<path d="M5690 5530 c-9 -6 -10 -10 -3 -10 6 0 15 5 18 10 8 12 4 12 -15 0z"/>
<path d="M4316 5521 c-4 -5 -2 -12 3 -15 5 -4 12 -2 15 3 4 5 2 12 -3 15 -5 4
-12 2 -15 -3z"/>
<path d="M4910 5500 c-18 -16 -20 -20 -7 -20 10 0 17 5 17 11 0 6 6 9 13 6 8
-3 14 1 14 9 0 19 -10 18 -37 -6z"/>
<path d="M3456 5496 c3 -9 13 -16 22 -16 8 0 13 1 11 3 -2 1 -12 9 -22 16 -15
12 -17 12 -11 -3z"/>
<path d="M4705 5500 c-3 -5 -1 -10 4 -10 6 0 11 5 11 10 0 6 -2 10 -4 10 -3 0
-8 -4 -11 -10z"/>
<path d="M4151 5484 c0 -11 3 -14 6 -6 3 7 2 16 -1 19 -3 4 -6 -2 -5 -13z"/>
<path d="M3525 5480 c3 -5 8 -10 11 -10 2 0 4 5 4 10 0 6 -5 10 -11 10 -5 0
-7 -4 -4 -10z"/>
<path d="M3447 5469 c7 -7 15 -10 18 -7 3 3 -2 9 -12 12 -14 6 -15 5 -6 -5z"/>
</g>
</svg>
